<svg width="75" height="75" viewBox="0 0 75 75" fill="none" xmlns="http://www.w3.org/2000/svg">
<g filter="url(#filter0_dddd_206_107)">
<path d="M66.5793 8C29.9672 8 22.6448 15.3224 22.6448 15.3224V45.2711C21.5465 44.905 20.2284 44.6121 18.9836 44.6121C12.906 44.6121 8 49.5181 8 55.5957C8 61.6733 12.906 66.5793 18.9836 66.5793C25.0612 66.5793 29.9672 61.6733 29.9672 55.5957V26.5257C35.3126 24.8416 44.5388 23.3038 59.2569 22.8645V37.9487C58.1585 37.5826 56.8405 37.2897 55.5957 37.2897C49.5181 37.2897 44.6121 42.1957 44.6121 48.2733C44.6121 54.3509 49.5181 59.2569 55.5957 59.2569C61.6733 59.2569 66.5793 54.3509 66.5793 48.2733V8Z" fill="#A3A649"/>
</g>
<defs>
<filter id="filter0_dddd_206_107" x="0" y="0" width="74.5791" height="74.5791" filterUnits="userSpaceOnUse" color-interpolation-filters="sRGB">
<feFlood flood-opacity="0" result="BackgroundImageFix"/>
<feColorMatrix in="SourceAlpha" type="matrix" values="0 0 0 0 0 0 0 0 0 0 0 0 0 0 0 0 0 0 127 0" result="hardAlpha"/>
<feOffset dy="-4"/>
<feGaussianBlur stdDeviation="2"/>
<feComposite in2="hardAlpha" operator="out"/>
<feColorMatrix type="matrix" values="0 0 0 0 0 0 0 0 0 0 0 0 0 0 0 0 0 0 0.25 0"/>
<feBlend mode="normal" in2="BackgroundImageFix" result="effect1_dropShadow_206_107"/>
<feColorMatrix in="SourceAlpha" type="matrix" values="0 0 0 0 0 0 0 0 0 0 0 0 0 0 0 0 0 0 127 0" result="hardAlpha"/>
<feOffset dy="4"/>
<feGaussianBlur stdDeviation="2"/>
<feComposite in2="hardAlpha" operator="out"/>
<feColorMatrix type="matrix" values="0 0 0 0 0 0 0 0 0 0 0 0 0 0 0 0 0 0 0.25 0"/>
<feBlend mode="normal" in2="effect1_dropShadow_206_107" result="effect2_dropShadow_206_107"/>
<feColorMatrix in="SourceAlpha" type="matrix" values="0 0 0 0 0 0 0 0 0 0 0 0 0 0 0 0 0 0 127 0" result="hardAlpha"/>
<feOffset dx="4"/>
<feGaussianBlur stdDeviation="2"/>
<feComposite in2="hardAlpha" operator="out"/>
<feColorMatrix type="matrix" values="0 0 0 0 0 0 0 0 0 0 0 0 0 0 0 0 0 0 0.25 0"/>
<feBlend mode="normal" in2="effect2_dropShadow_206_107" result="effect3_dropShadow_206_107"/>
<feColorMatrix in="SourceAlpha" type="matrix" values="0 0 0 0 0 0 0 0 0 0 0 0 0 0 0 0 0 0 127 0" result="hardAlpha"/>
<feOffset dx="-4"/>
<feGaussianBlur stdDeviation="2"/>
<feComposite in2="hardAlpha" operator="out"/>
<feColorMatrix type="matrix" values="0 0 0 0 0 0 0 0 0 0 0 0 0 0 0 0 0 0 0.25 0"/>
<feBlend mode="normal" in2="effect3_dropShadow_206_107" result="effect4_dropShadow_206_107"/>
<feBlend mode="normal" in="SourceGraphic" in2="effect4_dropShadow_206_107" result="shape"/>
</filter>
</defs>
</svg>
