<svg width="89" height="99" viewBox="0 0 89 99" fill="none" xmlns="http://www.w3.org/2000/svg">
<g filter="url(#filter0_d_191_506)">
<path d="M73.9714 40.3364C80.6457 44.1839 80.6457 53.8159 73.9714 57.6635L18.9943 89.3562C12.3276 93.1993 4 88.3877 4 80.6926L4 17.3072C4 9.61217 12.3276 4.80055 18.9943 8.64368L73.9714 40.3364Z" fill="#55A63F"/>
</g>
<path d="M10.792 60.064C9.32 60.064 8.15733 59.3493 7.304 57.92C6.472 56.4907 5.98133 54.6133 5.832 52.288C5.66133 49.408 5.97067 46.8693 6.76 44.672C7.57067 42.4533 8.78667 40.7253 10.408 39.488C12.0293 38.2507 13.96 37.632 16.2 37.632C18.4613 37.632 20.392 38.2507 21.992 39.488C23.6133 40.7253 24.8187 42.4427 25.608 44.64C26.4187 46.8373 26.728 49.3867 26.536 52.288C26.3867 54.6773 25.8853 56.5653 25.032 57.952C24.2 59.3387 23.048 60.032 21.576 60.032C20.744 60.032 20.104 59.8827 19.656 59.584C19.208 59.264 18.888 58.8693 18.696 58.4C18.5253 57.9093 18.44 57.4187 18.44 56.928C18.44 56.416 18.472 55.9787 18.536 55.616C17.8533 55.6373 17.0533 55.6587 16.136 55.68C15.2187 55.68 14.4507 55.6587 13.832 55.616C13.896 55.9787 13.928 56.416 13.928 56.928C13.928 57.4187 13.832 57.9093 13.64 58.4C13.4693 58.8693 13.16 59.264 12.712 59.584C12.264 59.904 11.624 60.064 10.792 60.064ZM13.608 49.92C15.2933 49.856 16.9787 49.856 18.664 49.92C18.7707 49.1733 18.76 48.4587 18.632 47.776C18.504 47.0933 18.2373 46.5387 17.832 46.112C17.4267 45.6853 16.8507 45.472 16.104 45.472C15.3573 45.472 14.7813 45.6853 14.376 46.112C13.992 46.5387 13.736 47.0933 13.608 47.776C13.5013 48.4373 13.5013 49.152 13.608 49.92ZM38.767 59.968C36.4843 59.9467 34.5537 59.5733 32.975 58.848C31.3963 58.1227 30.2017 56.96 29.391 55.36C28.5803 53.7387 28.175 51.5947 28.175 48.928C28.175 46.6027 28.5483 44.5973 29.295 42.912C30.063 41.2267 31.1723 39.9253 32.623 39.008C34.0737 38.0693 35.855 37.6 37.967 37.6C39.823 37.6 41.4443 37.8667 42.831 38.4C44.2177 38.9333 45.3057 39.7013 46.095 40.704C46.9057 41.6853 47.3537 42.8587 47.439 44.224C47.5243 45.5253 47.3003 46.656 46.767 47.616C46.255 48.576 45.487 49.4293 44.463 50.176C45.2097 50.304 45.8817 50.72 46.479 51.424C47.0977 52.128 47.407 52.9813 47.407 53.984C47.407 54.6667 47.2683 55.36 46.991 56.064C46.7137 56.768 46.2443 57.4187 45.583 58.016C44.943 58.6133 44.0577 59.0933 42.927 59.456C41.8177 59.7973 40.431 59.968 38.767 59.968ZM36.559 48.032C37.007 48.224 37.5403 48.32 38.159 48.32C38.7777 48.2987 39.3217 48.128 39.791 47.808C40.2817 47.488 40.527 46.9973 40.527 46.336C40.527 45.8453 40.3777 45.4507 40.079 45.152C39.8017 44.8533 39.4497 44.6507 39.023 44.544C38.5963 44.416 38.159 44.3627 37.711 44.384C37.263 44.4053 36.879 44.5013 36.559 44.672C36.1537 44.864 35.8763 45.1947 35.727 45.664C35.599 46.1333 35.599 46.6027 35.727 47.072C35.8763 47.52 36.1537 47.84 36.559 48.032ZM36.559 55.52C37.007 55.6907 37.5403 55.776 38.159 55.776C38.7777 55.7547 39.3217 55.6053 39.791 55.328C40.2817 55.0507 40.527 54.624 40.527 54.048C40.527 53.6213 40.3777 53.28 40.079 53.024C39.8017 52.7467 39.4497 52.5547 39.023 52.448C38.5963 52.3413 38.159 52.3093 37.711 52.352C37.263 52.3733 36.879 52.448 36.559 52.576C36.1537 52.7467 35.8763 53.0347 35.727 53.44C35.599 53.8453 35.599 54.2507 35.727 54.656C35.8763 55.0613 36.1537 55.3493 36.559 55.52ZM59.401 59.936C57.3743 59.936 55.529 59.5307 53.865 58.72C52.201 57.888 50.8783 56.64 49.897 54.976C48.9157 53.312 48.425 51.232 48.425 48.736C48.425 47.264 48.681 45.8667 49.193 44.544C49.705 43.2 50.4197 42.0053 51.337 40.96C52.2757 39.9147 53.3743 39.0933 54.633 38.496C55.8917 37.8987 57.2783 37.6 58.793 37.6C60.6917 37.6 62.3557 37.952 63.785 38.656C65.2143 39.3387 66.3237 40.2773 67.113 41.472C67.9237 42.6667 68.329 44 68.329 45.472C68.329 46.048 68.2117 46.6027 67.977 47.136C67.7637 47.648 67.4223 48.0747 66.953 48.416C66.505 48.7573 65.9183 48.928 65.193 48.928C64.5103 48.928 63.9663 48.8213 63.561 48.608C63.177 48.3947 62.8463 48.1387 62.569 47.84C62.313 47.52 62.0463 47.2 61.769 46.88C61.4917 46.56 61.1503 46.2933 60.745 46.08C60.3397 45.8667 59.785 45.76 59.081 45.76C58.4197 45.76 57.8117 45.9307 57.257 46.272C56.7023 46.6133 56.2543 47.0827 55.913 47.68C55.593 48.256 55.433 48.9173 55.433 49.664C55.433 50.7733 55.721 51.744 56.297 52.576C56.8943 53.408 57.737 53.824 58.825 53.824C59.6783 53.824 60.3503 53.696 60.841 53.44C61.353 53.184 61.7797 52.896 62.121 52.576C62.4837 52.2347 62.8677 51.936 63.273 51.68C63.6997 51.424 64.2437 51.296 64.905 51.296C65.8437 51.296 66.5477 51.6053 67.017 52.224C67.5077 52.8427 67.7103 53.6 67.625 54.496C67.5397 55.4133 67.1343 56.288 66.409 57.12C65.705 57.952 64.745 58.6347 63.529 59.168C62.3343 59.68 60.9583 59.936 59.401 59.936Z" fill="white"/>
<defs>
<filter id="filter0_d_191_506" x="0" y="7.29248" width="82.9771" height="91.415" filterUnits="userSpaceOnUse" color-interpolation-filters="sRGB">
<feFlood flood-opacity="0" result="BackgroundImageFix"/>
<feColorMatrix in="SourceAlpha" type="matrix" values="0 0 0 0 0 0 0 0 0 0 0 0 0 0 0 0 0 0 127 0" result="hardAlpha"/>
<feOffset dy="4"/>
<feGaussianBlur stdDeviation="2"/>
<feComposite in2="hardAlpha" operator="out"/>
<feColorMatrix type="matrix" values="0 0 0 0 0 0 0 0 0 0 0 0 0 0 0 0 0 0 0.25 0"/>
<feBlend mode="normal" in2="BackgroundImageFix" result="effect1_dropShadow_191_506"/>
<feBlend mode="normal" in="SourceGraphic" in2="effect1_dropShadow_191_506" result="shape"/>
</filter>
</defs>
</svg>
