<svg width="48" height="36" viewBox="0 0 48 36" fill="none" xmlns="http://www.w3.org/2000/svg">
<path d="M22.6164 1.75033C23.1448 0.564247 24.8283 0.564247 25.3568 1.75032L29.9584 12.0789C30.3601 12.9806 31.2548 13.5615 32.242 13.5615H45.4104C46.9741 13.5615 47.4944 15.6548 46.1127 16.3869L36.6598 21.3957C35.4981 22.0112 35.0117 23.4213 35.5467 24.6221L39.3841 33.2354C39.9643 34.5377 38.5714 35.8388 37.3116 35.1713L25.1571 28.731C24.425 28.3431 23.5482 28.3431 22.8161 28.731L10.6615 35.1713C9.40178 35.8388 8.00888 34.5377 8.58908 33.2354L12.4265 24.6221C12.9615 23.4213 12.475 22.0112 11.3134 21.3957L1.86048 16.3869C0.478734 15.6548 0.99905 13.5615 2.56278 13.5615H15.7312C16.7183 13.5615 17.6131 12.9806 18.0148 12.0789L22.6164 1.75033Z" fill="#FFD166" stroke="black"/>
</svg>
